<svg width="800" height="960" viewBox="0 0 800 960" fill="none" xmlns="http://www.w3.org/2000/svg">
  <defs>
    <linearGradient id="bg-power-bank" x1="120" y1="60" x2="680" y2="880" gradientUnits="userSpaceOnUse">
      <stop stop-color="#14080B"/>
      <stop offset="0.48" stop-color="#2B050D"/>
      <stop offset="1" stop-color="#09070A"/>
    </linearGradient>
    <radialGradient id="glow-power-bank" cx="0" cy="0" r="1" gradientUnits="userSpaceOnUse" gradientTransform="translate(210 180) rotate(42) scale(430 420)">
      <stop stop-color="#F6E5C5" stop-opacity="0.32"/>
      <stop offset="0.4" stop-color="#C11E3A" stop-opacity="0.22"/>
      <stop offset="1" stop-color="#000000" stop-opacity="0"/>
    </radialGradient>
  </defs>
  <rect width="800" height="960" rx="40" fill="url(#bg-power-bank)"/>
  <rect width="800" height="960" rx="40" fill="url(#glow-power-bank)"/>
  <circle cx="122" cy="120" r="140" fill="#C11E3A" fill-opacity="0.12"/>
  <circle cx="660" cy="720" r="180" fill="#F6E5C5" fill-opacity="0.08"/>
  <path d="M80 790C180 705 263 670 403 670C534 670 634 708 720 790V960H80V790Z" fill="rgba(255,255,255,0.04)"/>
  
        <g opacity="0.95">
          <rect x="224" y="210" width="350" height="420" rx="52" fill="rgba(255,255,255,0.10)" stroke="rgba(245,228,196,0.34)" stroke-width="4"/>
          <rect x="266" y="252" width="266" height="332" rx="38" fill="#111214"/>
          <rect x="296" y="286" width="206" height="272" rx="24" fill="rgba(169,25,52,0.63)"/>
          <path d="M386 333v96M334 382h104" stroke="#f5e4c4" stroke-width="16" stroke-linecap="round"/>
          <path d="M340 500h120" stroke="rgba(245,228,196,0.4)" stroke-width="10" stroke-linecap="round"/>
        </g>
        
  <g>
  </g>
  <g transform="translate(52 800)">
    <image href="/brand/hami-mark-alpha.png" x="0" y="0" width="72" height="72" preserveAspectRatio="xMidYMid meet"/>
  </g>
</svg>
